HIERARCHY
ROOT Hips
{
	OFFSET 0.000000 0.000000 0.000000
	CHANNELS 6 Xposition Yposition Zposition Xrotation Yrotation Zrotation
	JOINT LeftUpLeg_virtual
	{
		OFFSET 0.000000 0.000000 0.000000
		CHANNELS 3 Xrotation Yrotation Zrotation
		JOINT LeftUpLeg
		{
			OFFSET 13.026900 -6.336304 -1.092800
			CHANNELS 3 Xrotation Yrotation Zrotation
			JOINT LeftLeg
			{
				OFFSET 0.524474 -46.096886 9.782700
				CHANNELS 3 Xrotation Yrotation Zrotation
				JOINT LeftFoot
				{
					OFFSET -0.524474 -53.427422 -12.948200
					CHANNELS 3 Xrotation Yrotation Zrotation
					JOINT LeftToeBase
					{
						OFFSET 0.192200 -14.009700 16.364100
						CHANNELS 3 Xrotation Yrotation Zrotation
						JOINT LeftToe_End
						{
							OFFSET -1.784700 -0.561700 9.474800
							CHANNELS 3 Xrotation Yrotation Zrotation
							End Site
							{
								OFFSET 0 0 0
							}
						}
					}
				}
			}
		}
	}
	JOINT RightUpLeg_virtual
	{
		OFFSET 0.000000 0.000000 0.000000
		CHANNELS 3 Xrotation Yrotation Zrotation
		JOINT RightUpLeg
		{
			OFFSET -12.883000 -6.336304 -1.092800
			CHANNELS 3 Xrotation Yrotation Zrotation
			JOINT RightLeg
			{
				OFFSET -0.524587 -46.096825 9.782800
				CHANNELS 3 Xrotation Yrotation Zrotation
				JOINT RightFoot
				{
					OFFSET 0.524587 -53.427383 -12.948300
					CHANNELS 3 Xrotation Yrotation Zrotation
					JOINT RightToeBase
					{
						OFFSET -0.192200 -14.009700 16.364100
						CHANNELS 3 Xrotation Yrotation Zrotation
						JOINT RightToe_End
						{
							OFFSET 1.784700 -0.561700 9.474800
							CHANNELS 3 Xrotation Yrotation Zrotation
							End Site
							{
								OFFSET 0 0 0
							}
						}
					}
				}
			}
		}
	}
	JOINT Spine_virtual
	{
		OFFSET 0.000000 0.000000 0.000000
		CHANNELS 3 Xrotation Yrotation Zrotation
		JOINT Spine
		{
			OFFSET 0.072000 7.257294 -0.789700
			CHANNELS 3 Xrotation Yrotation Zrotation
			JOINT Spine1
			{
				OFFSET 0.000000 12.508769 -0.658067
				CHANNELS 3 Xrotation Yrotation Zrotation
				JOINT Spine1_split
				{
					OFFSET 0.000000 12.508769 -0.658067
					CHANNELS 3 Xrotation Yrotation Zrotation
					JOINT Spine2
					{
						OFFSET 0.000000 12.508769 -0.658067
						CHANNELS 3 Xrotation Yrotation Zrotation
						JOINT Neck_virtual
						{
							OFFSET 0.000000 0.000000 0.000000
							CHANNELS 3 Xrotation Yrotation Zrotation
							JOINT Neck
							{
								OFFSET 0.000000 14.033295 7.520400
								CHANNELS 3 Xrotation Yrotation Zrotation
								JOINT Head
								{
									OFFSET 0.000000 8.198502 5.703100
									CHANNELS 3 Xrotation Yrotation Zrotation
									JOINT HeadTop_End
									{
										OFFSET 0.000000 17.760803 13.332701
										CHANNELS 3 Xrotation Yrotation Zrotation
										End Site
										{
											OFFSET 0 0 0
										}
									}
								}
							}
						}
						JOINT LeftShoulder_virtual
						{
							OFFSET 0.000000 0.000000 0.000000
							CHANNELS 3 Xrotation Yrotation Zrotation
							JOINT LeftShoulder
							{
								OFFSET 6.292450 5.785301 -0.669000
								CHANNELS 3 Xrotation Yrotation Zrotation
								JOINT LeftShoulder_split
								{
									OFFSET 6.292450 5.785301 -0.669000
									CHANNELS 3 Xrotation Yrotation Zrotation
									JOINT LeftArm
									{
										OFFSET 13.907140 -6.093903 1.965100
										CHANNELS 3 Xrotation Yrotation Zrotation
										JOINT LeftForeArm
										{
											OFFSET 34.140198 0.000000 0.000000
											CHANNELS 3 Xrotation Yrotation Zrotation
											JOINT LeftHand
											{
												OFFSET 40.960209 0.000000 0.000000
												CHANNELS 3 Xrotation Yrotation Zrotation
												End Site
												{
													OFFSET 0 0 0
												}
											}
										}
									}
								}
							}
						}
						JOINT RightShoulder_virtual
						{
							OFFSET 0.000000 0.000000 0.000000
							CHANNELS 3 Xrotation Yrotation Zrotation
							JOINT RightShoulder
							{
								OFFSET -6.292450 5.785301 -0.669000
								CHANNELS 3 Xrotation Yrotation Zrotation
								JOINT RightShoulder_split
								{
									OFFSET -6.292450 5.785301 -0.669000
									CHANNELS 3 Xrotation Yrotation Zrotation
									JOINT RightArm
									{
										OFFSET -13.907140 -6.093903 1.965100
										CHANNELS 3 Xrotation Yrotation Zrotation
										JOINT RightForeArm
										{
											OFFSET -34.140198 0.000000 0.000000
											CHANNELS 3 Xrotation Yrotation Zrotation
											JOINT RightHand
											{
												OFFSET -40.960209 0.000000 0.000000
												CHANNELS 3 Xrotation Yrotation Zrotation
												End Site
												{
													OFFSET 0 0 0
												}
											}
										}
									}
								}
							}
						}
					}
				}
			}
		}
	}
}
MOTION
Frames: 4
Frame Time: 0.03333333
5.141235 105.091103 45.961098 0.000000 0.000000 0.000000 7.833360 3.109443 0.793582 -31.084341 11.086689 15.369555 35.480941 -0.883980 3.639682 -7.661294 6.921943 -18.325913 0.430057 -2.986746 -1.325453 0.000000 0.000000 0.000000 8.585042 4.667489 0.664312 -34.891338 -3.677234 -5.256137 38.859651 6.462710 -5.043175 -8.821325 -14.411364 21.024577 4.534654 3.646302 -9.390022 0.000000 0.000000 0.000000 6.383829 9.077598 -0.033665 8.889953 -4.501979 -2.687759 2.936128 -1.152058 0.965524 -0.076617 0.138453 -0.088861 0.000000 0.000000 0.000000 -1.273145 1.924393 0.186369 22.447109 19.520542 5.426326 -6.591225 44.662730 -17.658853 0.000000 0.000000 0.000000 4.444569 -1.420229 1.079557 9.153391 -12.705823 26.965505 -3.360761 -3.521971 0.565008 -39.003297 -12.167590 -7.511670 167.576150 -77.186083 168.254293 0.000000 0.000000 0.000000 2.959322 0.695631 1.181922 0.345183 2.057063 -14.456196 1.482737 -1.740549 11.823961 -31.501007 32.576181 16.861907 -169.620330 48.582480 172.841748 0.000000 0.000000 0.000000 
4.956399 107.944672 46.848728 0.000000 0.000000 0.000000 8.368679 3.246744 1.096482 -28.740241 11.862187 14.179421 30.096600 -0.605005 3.831157 -5.759475 7.319502 -18.230135 0.667997 -3.086771 -1.260617 0.000000 0.000000 0.000000 9.112936 4.940982 0.863457 -32.396199 -3.772185 -4.995594 33.915175 5.893640 -4.783963 -7.266398 -14.664782 20.891220 4.356532 3.674165 -8.605076 0.000000 0.000000 0.000000 7.268892 9.339075 0.069323 8.446760 -4.737712 -2.595260 2.054172 -1.332301 0.736001 -0.035826 0.147503 -0.077951 0.000000 0.000000 0.000000 -1.928967 1.763975 0.049209 21.375027 19.374916 5.460905 -4.778590 43.005323 -19.221551 0.000000 0.000000 0.000000 3.679927 -1.512576 1.041449 9.098479 -11.961849 26.809363 -3.744341 -3.908420 0.409557 -39.526704 -11.288745 -8.305233 166.970886 -76.748001 167.479899 0.000000 0.000000 0.000000 2.057070 0.425324 0.924512 0.527881 2.466962 -14.185579 1.908879 -2.331993 11.542126 -31.998470 32.263430 17.482171 -170.153276 48.699324 173.402698 0.000000 0.000000 0.000000 
4.794776 110.488373 47.605419 0.000000 0.000000 0.000000 8.834631 3.362074 1.382428 -26.692943 12.665976 13.193498 25.289271 -0.568909 3.993806 -3.909096 7.482682 -18.301774 0.655257 -3.166248 -1.216563 0.000000 0.000000 0.000000 9.506293 5.299474 1.041148 -30.065226 -3.994283 -4.853278 29.569272 5.409369 -4.568501 -5.990666 -14.724834 20.709972 4.299204 3.703829 -7.731089 0.000000 0.000000 0.000000 7.857835 9.665953 0.189349 8.219877 -4.939299 -2.445524 1.285793 -1.536009 0.530170 0.018733 0.169576 -0.075064 0.000000 0.000000 0.000000 -2.429081 1.558873 -0.052121 20.239572 19.225299 5.472379 -3.573918 41.637093 -20.382195 0.000000 0.000000 0.000000 3.027051 -1.618914 1.018532 8.995025 -11.011594 26.606589 -3.998472 -4.362057 0.399449 -39.511541 -10.953504 -8.976504 165.914352 -76.439188 166.205154 0.000000 0.000000 0.000000 1.264701 0.131868 0.679940 0.685441 2.955168 -13.784423 2.003611 -3.021621 10.892676 -32.940964 31.772578 18.613705 -170.819042 49.009981 174.156259 0.000000 0.000000 0.000000 
4.686406 112.481529 48.060463 0.000000 0.000000 0.000000 9.146972 3.555767 1.560022 -25.162302 13.527437 12.579328 21.462698 -0.705059 4.050912 -2.360683 7.433145 -18.470829 0.569830 -3.218817 -1.221692 0.000000 0.000000 0.000000 9.771819 5.731572 1.135805 -28.062741 -4.325812 -4.797483 25.988231 5.122047 -4.394926 -5.142417 -14.495470 20.494196 4.521205 3.719012 -6.909326 0.000000 0.000000 0.000000 8.126973 9.953921 0.292802 8.150816 -5.076528 -2.246329 0.675272 -1.728160 0.359499 0.062811 0.210650 -0.093636 0.000000 0.000000 0.000000 -2.721852 1.329716 -0.116274 19.180718 19.055716 5.551303 -2.734285 40.552544 -21.303515 0.000000 0.000000 0.000000 2.495915 -1.718619 1.015594 8.859865 -9.900006 26.433816 -4.157149 -4.881222 0.616983 -39.052778 -11.156874 -9.586156 165.011633 -75.960726 165.105972 0.000000 0.000000 0.000000 0.645665 -0.157255 0.465609 0.793381 3.394386 -13.325513 1.810938 -3.496196 10.060588 -34.142490 31.004944 20.178621 -171.579461 49.317357 175.050413 0.000000 0.000000 0.000000 
